<?xml version="1.0" encoding="utf-8"?>
<!-- Generator: Adobe Illustrator 23.0.6, SVG Export Plug-In . SVG Version: 6.00 Build 0)  -->
<svg version="1.1" id="Layer_1" xmlns="http://www.w3.org/2000/svg" xmlns:xlink="http://www.w3.org/1999/xlink" x="0px" y="0px"
	 viewBox="0 0 2578.7 929.3" style="enable-background:new 0 0 2578.7 929.3;" xml:space="preserve">
<style type="text/css">
	.st0{fill:#00FF00;stroke:#FF0000;stroke-miterlimit:10;}
	.st1{fill:none;}
</style>
<title>logo_blk</title>
<path class="st0" d="M0,212.9V14.3h32.6v74.1l50.8-73.8h47.2L61.3,115.9l70.4,96.4H83.6l-51-73.2v73.8L0,212.9L0,212.9z"/>
<path class="st0" d="M288.5,14.3V213h-32.6v-37.9h-73V213h-32.6V14.3H288.5z M182.8,61.1v67h73v-67H182.8z"/>
<path class="st0" d="M377,175h-37.4v37.9H307V14.3h138.3V175h-26.6l25.8,37.4h-41.7L377,175z M412.7,128.1v-67h-73v67H412.7z"/>
<path class="st0" d="M602.1,14.3V213H463.8V14.3H602.1z M496.4,61.1v105h73v-105C569.4,61.1,496.4,61.1,496.4,61.1z"/>
<path class="st0" d="M758.9,212.9H620.7V14.3h32.6v151.8h105.6L758.9,212.9L758.9,212.9z"/>
<path class="st0" d="M817.6,14.3v390.3h-32.2V14.3H817.6z"/>
<path class="st0" d="M828.7,212.9V13.7l105.6,107.6v-107h32.6v200.1L861.3,105.3v107.6H828.7z"/>
<path class="st0" d="M1123.7,14.3v46.8h-105.6v29h105.6V137h-105.6v29h105.6v46.9H985.4V14.3H1123.7z"/>
<path class="st0" d="M405.7,530.4h65.6v-29H365.7V378.6h130.8l-32.6,46.9h-65.6v29h105.6v122.8H373.1L405.7,530.4z"/>
<path class="st0" d="M522.5,378.6h138.3v46.9H555.1v104.9h105.6v46.9H522.5V378.6z"/>
<path class="st0" d="M711.9,378.5v75.9h73v-75.9h32.7v198.7H785v-75.9h-73v75.9h-32.6V378.5H711.9z"/>
<path class="st0" d="M836.2,577.2V378l105.6,107.6v-107h32.6v200.1L868.8,469.6v107.6H836.2z"/>
<path class="st0" d="M1131.2,378.6v198.7H992.9V378.6H1131.2z M1025.6,425.4v104.9h73V425.4H1025.6z"/>
<path class="st0" d="M1182.4,379v75.9h73V379h32.6v198.7h-32.6v-75.9h-73v75.9h-32.6V379H1182.4z"/>
<path class="st0" d="M1393,544.6h-37.7c-0.7,75.3,0.3-41.2-0.3,34.2c-11,1-22.6-2.5-33.5-1.5c0.7-129.9,0.3-63.5,1-193.4H1462v160.7
	h-26.9l26,37.4H1419L1393,544.6z M1428,497.7v-67h-73v67H1428z"/>
<path class="st0" d="M1181.7,477.9"/>
<rect x="1955.3" y="763.3" class="st1" width="122.6" height="6.1"/>
<path class="st0" d="M1021.9,580.5"/>
<rect x="3.1" y="633" class="st0" width="2575.6" height="24.3"/>
</svg>
