<svg id="Layer_1" data-name="Layer 1" xmlns="http://www.w3.org/2000/svg" viewBox="0 0 2578.7 929.3"><defs><style>.cls-1{fill:#37fc00;}.cls-2{fill:none;}.cls-3{fill:#326bb4;}</style></defs><title>logo_blk</title><path class="cls-1" d="M23.4,238.8V40.2H56v74.1l50.8-73.8H154L84.7,141.8l70.4,96.4H107L56,165v73.8Z" transform="translate(-23.4 -39.6)"/><path class="cls-1" d="M311.9,40.2V238.9H279.3V201h-73v37.9H173.7V40.2ZM206.2,87v67h73V87Z" transform="translate(-23.4 -39.6)"/><path class="cls-1" d="M400.4,200.9H363v37.9H330.4V40.2H468.7V200.9H442.1l25.8,37.4H426.2ZM436.1,154V87h-73v67Z" transform="translate(-23.4 -39.6)"/><path class="cls-1" d="M625.5,40.2V238.9H487.2V40.2ZM519.8,87V192h73V87Z" transform="translate(-23.4 -39.6)"/><path class="cls-1" d="M782.3,238.8H644.1V40.2h32.6V192H782.3v46.8Z" transform="translate(-23.4 -39.6)"/><path class="cls-1" d="M841,40.2V430.5H808.8V40.2Z" transform="translate(-23.4 -39.6)"/><path class="cls-1" d="M852.1,238.8V39.6L957.7,147.2V40.2h32.6V240.3L884.7,131.2V238.8Z" transform="translate(-23.4 -39.6)"/><path class="cls-1" d="M1147.1,40.2V87H1041.5v29h105.6v46.9H1041.5v29h105.6v46.9H1008.8V40.2Z" transform="translate(-23.4 -39.6)"/><path class="cls-1" d="M429.1,556.3h65.6v-29H389.1V404.5H519.9l-32.6,46.9H421.7v29H527.3V603.2H396.5Z" transform="translate(-23.4 -39.6)"/><path class="cls-1" d="M545.9,404.5H684.2v46.9H578.5V556.3H684.1v46.9H545.9Z" transform="translate(-23.4 -39.6)"/><path class="cls-1" d="M735.3,404.5v75.9h73V404.5H841V603.2H808.4V527.3h-73v75.9H702.8V404.5Z" transform="translate(-23.4 -39.6)"/><path class="cls-1" d="M859.6,603.1V403.9L965.2,511.5v-107h32.6V604.6L892.2,495.5V603.1Z" transform="translate(-23.4 -39.6)"/><path class="cls-1" d="M1154.6,404.5V603.2H1016.3V404.5ZM1049,451.3V556.2h73V451.3Z" transform="translate(-23.4 -39.6)"/><path class="cls-1" d="M1205.8,404.9v75.9h73V404.9h32.6V603.6h-32.6V527.7h-73v75.9h-32.6V404.9Z" transform="translate(-23.4 -39.6)"/><path class="cls-1" d="M1416.4,570.5h-37.7c-.7,75.3.3-41.2-.3,34.2-11,1-22.6-2.5-33.5-1.5.7-129.9.3-63.5,1-193.4h139.5V570.5h-26.9l26,37.4h-42.1Zm35-46.9v-67h-73v67Z" transform="translate(-23.4 -39.6)"/><path d="M237.3,768.8V967.5H204.7V815.7l-46.6.3V967.5H125.5V816l-46.6-.3V967.5H46.2V768.8Z" transform="translate(-23.4 -39.6)"/><path d="M294.7,769.3V921.1h73V769.3h32.6V968H262.1V769.3Z" transform="translate(-23.4 -39.6)"/><path d="M557.1,967.4H418.9V768.8h32.6V920.6H557.1Z" transform="translate(-23.4 -39.6)"/><path d="M514.8,768.8H653.1v46.9H600.3V967.5H567.7V815.7H514.9V768.8Z" transform="translate(-23.4 -39.6)"/><path d="M704.3,768.8V967.5H671.7V768.8Z" transform="translate(-23.4 -39.6)"/><path d="M913.9,768.8V967.5H881.3V815.7l-46.6.3V967.5H802.1V816l-46.6-.3V967.5H722.9V768.8Z" transform="translate(-23.4 -39.6)"/><path d="M1070.7,768.8v46.9H965.1v29h105.6v46.9H965.1v29h105.6v46.9H932.5V768.8Z" transform="translate(-23.4 -39.6)"/><path d="M1089.3,967.4V768.8h110.6l26.6,198.7H1089.3Zm94.5-46.8L1170,815.7h-48.1V920.6Z" transform="translate(-23.4 -39.6)"/><path d="M1277.7,768.8V967.5h-32.6V768.8Z" transform="translate(-23.4 -39.6)"/><path d="M1434.5,768.8v46.9H1328.9v29h105.6v46.9H1328.9v29h105.6v46.9H1296.2V768.8Z" transform="translate(-23.4 -39.6)"/><path d="M1453.1,967.4V768.8h110.6l26.6,198.7H1453.1Zm94.5-46.8-13.8-104.9h-48.1V920.6Z" transform="translate(-23.4 -39.6)"/><path d="M1747.1,768.8v46.9H1641.5v29h105.6v46.9H1641.5v29h105.6v46.9H1608.8V768.8Z" transform="translate(-23.4 -39.6)"/><path d="M1805.7,920.6h65.6v-29H1765.7V768.8h130.8l-32.6,46.9h-65.6v29H1904V967.5H1773.2Z" transform="translate(-23.4 -39.6)"/><path d="M1955.1,768.8V967.5h-32.6V768.8Z" transform="translate(-23.4 -39.6)"/><path d="M2112,967.4H1973.7V768.8H2112v46.9H2006.4V920.6h73v-29H2053V844.7h59Z" transform="translate(-23.4 -39.6)"/><path d="M2130.5,967.4V768.2l105.6,107.6v-107h32.6V968.9L2163.1,859.8V967.4Z" transform="translate(-23.4 -39.6)"/><path d="M2425.6,768.8v46.9H2320v29h105.6v46.9H2320v29h105.6v46.9H2287.3V768.8Z" transform="translate(-23.4 -39.6)"/><path d="M2514.1,929.5h-37.3v37.9h-32.6V768.8h138.3V929.5h-26.6l25.8,37.4H2540Zm35.7-46.8v-67h-73v67Z" transform="translate(-23.4 -39.6)"/><path class="cls-1" d="M1205.1,503.8" transform="translate(-23.4 -39.6)"/><rect class="cls-2" x="1955.3" y="749.6" width="122.6" height="6.1"/><path class="cls-3" d="M1045.3,606.4" transform="translate(-23.4 -39.6)"/><rect class="cls-1" x="3.1" y="619.3" width="2575.6" height="24.3"/><polygon class="cls-3" points="1470.7 584.4 1450 584.4 1450 584.4 1470.7 584.4"/></svg>