<?xml version="1.0" encoding="utf-8"?>
<!-- Generator: Adobe Illustrator 23.0.6, SVG Export Plug-In . SVG Version: 6.00 Build 0)  -->
<svg version="1.1" id="Layer_1" xmlns="http://www.w3.org/2000/svg" xmlns:xlink="http://www.w3.org/1999/xlink" x="0px" y="0px"
	 viewBox="0 0 2624.7 1019.4" style="enable-background:new 0 0 2624.7 1019.4;" xml:space="preserve">
<style type="text/css">
	.st0{fill:#37FC00;}
	.st1{fill:#FFFFFF;}
	.st2{fill:none;}
	.st3{fill:#326BB4;}
</style>
<g>
	<path class="st0" d="M23.4,238.8V40.2H56v74.1l50.8-73.8H154L84.7,141.8l70.4,96.4H107l-51-73.2v73.8L23.4,238.8L23.4,238.8z"/>
	<path class="st0" d="M311.9,40.2v198.7h-32.6v-37.9h-73v37.9h-32.6V40.2L311.9,40.2L311.9,40.2z M206.2,87v67h73V87H206.2z"/>
	<path class="st0" d="M400.4,200.9H363v37.9h-32.6V40.2h138.3v160.7h-26.6l25.8,37.4h-41.7L400.4,200.9z M436.1,154V87h-73v67H436.1
		z"/>
	<path class="st0" d="M625.5,40.2v198.7H487.2V40.2L625.5,40.2L625.5,40.2z M519.8,87V192h73V87H519.8z"/>
	<path class="st0" d="M782.3,238.8H644.1V40.2h32.6V192h105.6V238.8z"/>
	<path class="st0" d="M841,40.2v390.3h-32.2V40.2L841,40.2L841,40.2z"/>
	<path class="st0" d="M852.1,238.8V39.6l105.6,107.6v-107h32.6v200.1L884.7,131.2v107.6H852.1z"/>
	<path class="st0" d="M1147.1,40.2V87h-105.6v29h105.6v46.9h-105.6v29h105.6v46.9h-138.3V40.2L1147.1,40.2L1147.1,40.2z"/>
	<path class="st0" d="M429.1,556.3h65.6v-29H389.1V404.5h130.8l-32.6,46.9h-65.6v29h105.6v122.8H396.5L429.1,556.3z"/>
	<path class="st0" d="M545.9,404.5h138.3v46.9H578.5v104.9h105.6v46.9H545.9V404.5z"/>
	<path class="st0" d="M735.3,404.5c0,25.3,0,50.6,0,75.9c24.3,0,48.7,0,73,0v-75.9H841v198.7h-32.6v-75.9h-73v75.9h-32.6
		c0-25.7,0-51.5,0-77.3c0-40.5,0-80.9,0-121.4H735.3z"/>
	<path class="st0" d="M859.6,603.1V403.9l105.6,107.6v-107h32.6v200.1L892.2,495.5v107.6H859.6z"/>
	<path class="st0" d="M1154.6,404.5v198.7h-138.3V404.5H1154.6z M1049,451.3v104.9h73V451.3H1049z"/>
	<path class="st0" d="M1205.8,404.9v75.9h73v-75.9h32.6v198.7h-32.6v-75.9h-73v75.9h-32.6V404.9H1205.8z"/>
	<path class="st0" d="M1416.4,570.5h-37.7c-0.7,75.3,0.3-41.2-0.3,34.2c-11,1-22.6-2.5-33.5-1.5c0.7-129.9,0.3-63.5,1-193.4h139.5
		v160.7h-26.9l26,37.4h-42.1L1416.4,570.5z M1451.4,523.6v-67h-73v67H1451.4z"/>
	<path class="st1" d="M237.3,768.8v198.7h-32.6V815.7l-46.6,0.3v151.5h-32.6V816l-46.6-0.3v151.8H46.2V768.8H237.3z"/>
	<path class="st1" d="M294.7,769.3v151.8h73V769.3h32.6v198.7H262.1V769.3H294.7z"/>
	<path class="st1" d="M557.1,967.4H418.9V768.8h32.6v151.8h105.6V967.4z"/>
	<path class="st1" d="M514.8,768.8h138.3v46.9h-52.8v151.8h-32.6V815.7h-52.8V768.8z"/>
	<path class="st1" d="M704.3,768.8v198.7h-32.6V768.8H704.3z"/>
	<path class="st1" d="M913.9,768.8v198.7h-32.6V815.7l-46.6,0.3v151.5h-32.6V816l-46.6-0.3v151.8h-32.6V768.8H913.9z"/>
	<path class="st1" d="M1070.7,768.8v46.9H965.1v29h105.6v46.9H965.1v29h105.6v46.9H932.5V768.8H1070.7z"/>
	<path class="st1" d="M1089.3,967.4V768.8h110.6l26.6,198.7H1089.3z M1183.8,920.6L1170,815.7h-48.1v104.9H1183.8z"/>
	<path class="st1" d="M1277.7,768.8v198.7h-32.6V768.8H1277.7z"/>
	<path class="st1" d="M1434.5,768.8v46.9h-105.6v29h105.6v46.9h-105.6v29h105.6v46.9h-138.3V768.8H1434.5z"/>
	<path class="st1" d="M1453.1,967.4V768.8h110.6l26.6,198.7H1453.1z M1547.6,920.6l-13.8-104.9h-48.1v104.9H1547.6z"/>
	<path class="st1" d="M1747.1,768.8v46.9h-105.6v29h105.6v46.9h-105.6v29h105.6v46.9h-138.3V768.8H1747.1z"/>
	<path class="st1" d="M1805.7,920.6h65.6v-29h-105.6V768.8h130.8l-32.6,46.9h-65.6v29H1904v122.8h-130.8L1805.7,920.6z"/>
	<path class="st1" d="M1955.1,768.8v198.7h-32.6V768.8H1955.1z"/>
	<path class="st1" d="M2112,967.4h-138.3V768.8H2112v46.9h-105.6v104.9h73v-29h-26.4v-46.9h59V967.4z"/>
	<path class="st1" d="M2130.5,967.4V768.2l105.6,107.6v-107h32.6v200.1l-105.6-109.1v107.6H2130.5z"/>
	<path class="st1" d="M2425.6,768.8v46.9h-105.6v29h105.6v46.9h-105.6v29h105.6v46.9h-138.3V768.8H2425.6z"/>
	<path class="st1" d="M2514.1,929.5h-37.3v37.9h-32.6V768.8h138.3v160.7h-26.6l25.8,37.4h-41.7L2514.1,929.5z M2549.8,882.7v-67h-73
		v67H2549.8z"/>
	<path class="st0" d="M1205.1,503.8"/>
</g>
<rect x="1978.7" y="789.2" class="st2" width="122.6" height="6.1"/>
<path class="st3" d="M1045.3,606.4"/>
<rect x="26.5" y="658.9" class="st0" width="2575.6" height="24.3"/>
<polygon class="st3" points="1494.1,624 1473.4,624 1473.4,624 "/>
</svg>
