<?xml version="1.0" encoding="utf-8"?>
<!-- Generator: Adobe Illustrator 23.0.6, SVG Export Plug-In . SVG Version: 6.00 Build 0)  -->
<svg version="1.1" id="Layer_1" xmlns="http://www.w3.org/2000/svg" xmlns:xlink="http://www.w3.org/1999/xlink" x="0px" y="0px"
	 viewBox="0 0 2210.7 1961.9" style="enable-background:new 0 0 2210.7 1961.9;" xml:space="preserve">
<style type="text/css">
	.st0{fill:#F17CB1;stroke:#000000;stroke-miterlimit:10;}
	.st1{fill:#B33272;stroke:#000000;stroke-miterlimit:10;}
	.st2{clip-path:url(#SVGID_2_);fill:#E34E26;}
	.st3{clip-path:url(#SVGID_2_);fill:#F0662A;}
	.st4{clip-path:url(#SVGID_2_);fill:#EBEBEB;}
	.st5{clip-path:url(#SVGID_2_);}
	.st6{clip-path:url(#SVGID_2_);fill:#FFFFFF;}
	.st7{clip-path:url(#SVGID_4_);fill:#246EB7;}
</style>
<rect x="243.6" y="23.6" class="st0" width="1925" height="132.1"/>
<rect x="243.6" y="216.5" class="st0" width="1925" height="132.1"/>
<rect x="243.6" y="599.5" class="st0" width="1925" height="132.1"/>
<rect x="243.6" y="23.6" class="st1" width="1456.4" height="132.1"/>
<rect x="243.6" y="216.5" class="st1" width="1638.6" height="126.8"/>
<image style="overflow:visible;" width="96" height="96" xlink:href="../../../../../Downloads/icons8-adobe-illustrator-96.png"  transform="matrix(2.0439 0 0 1.8689 29.5 0)">
</image>
<image style="overflow:visible;" width="96" height="96" xlink:href="photoshop.png"  transform="matrix(2.1578 0 0 1.8765 24.0313 189.8103)">
</image>
<image style="overflow:visible;" width="96" height="96" xlink:href="icons8-adobe-after-effects-96.png"  transform="matrix(2.167 0 0 1.8601 23.5893 386.1339)">
</image>
<rect x="243.6" y="805.8" class="st0" width="1925" height="132.1"/>
<rect x="243.6" y="1004" class="st0" width="1925" height="132.1"/>
<rect x="243.6" y="1202.2" class="st0" width="1925" height="132.1"/>
<rect x="243.6" y="1607.6" class="st0" width="1925" height="132.1"/>
<rect x="243.6" y="1400.4" class="st0" width="1925" height="132.1"/>
<image style="overflow:visible;" width="96" height="96" xlink:href="365.png"  transform="matrix(1.873 0 0 1.7255 37.7054 1590.808)">
</image>
<g>
	<g>
		<defs>
			<rect id="SVGID_1_" x="32.7" y="759.9" width="189.9" height="205.6"/>
		</defs>
		<clipPath id="SVGID_2_">
			<use xlink:href="#SVGID_1_"  style="overflow:visible;"/>
		</clipPath>
		<polygon class="st2" points="72.6,929.3 60.4,814.4 194.9,814.4 182.6,929.3 127.5,942.1 		"/>
		<polygon class="st3" points="127.6,932.3 172.1,922 182.6,823.8 127.6,823.8 		"/>
		<polygon class="st4" points="127.6,866.5 105.3,866.5 103.8,852 127.6,852 127.6,837.9 127.5,837.9 85.4,837.9 85.8,841.7 
			89.9,880.5 127.6,880.5 		"/>
		<polygon class="st4" points="127.6,903.1 127.5,903.1 108.8,898.8 107.6,887.6 98.5,887.6 90.7,887.6 93,909.7 127.5,917.7 
			127.6,917.7 		"/>
		<polygon class="st5" points="72.9,783.2 81.4,783.2 81.4,790.3 89.3,790.3 89.3,783.2 97.8,783.2 97.8,804.6 89.3,804.6 
			89.3,797.5 81.4,797.5 81.4,804.6 72.9,804.6 72.9,783.2 		"/>
		<polygon class="st5" points="109.1,790.3 101.5,790.3 101.5,783.2 125.2,783.2 125.2,790.3 117.6,790.3 117.6,804.6 109.1,804.6 
			109.1,790.3 		"/>
		<polygon class="st5" points="128.9,783.2 137.8,783.2 143.3,790.7 148.8,783.2 157.7,783.2 157.7,804.6 149.2,804.6 149.2,794 
			143.3,801.6 143.2,801.6 137.3,794 137.3,804.6 128.9,804.6 		"/>
		<polygon class="st5" points="162,783.2 170.5,783.2 170.5,797.6 182.6,797.6 182.6,804.6 162,804.6 		"/>
		<polygon class="st6" points="127.5,866.5 127.5,880.5 148.3,880.5 146.3,898.8 127.5,903.1 127.5,917.7 162.1,909.7 162.3,907.3 
			166.3,870.2 166.7,866.5 162.2,866.5 		"/>
		<polygon class="st6" points="127.5,837.9 127.5,846.7 127.5,852 127.5,852 168.2,852 168.2,852 168.6,848.9 169.3,841.7 
			169.7,837.9 		"/>
	</g>
</g>
<image style="overflow:visible;" width="48" height="48" xlink:href="icons8-github-48.png"  transform="matrix(3.497 0 0 3.118 43.6786 1779.3276)">
</image>
<image style="overflow:visible;" width="128" height="128" xlink:href="../../../../../Downloads/iconfinder_css3_294692.png"  transform="matrix(1.6168 0 0 1.5092 24.1294 977.3102)">
</image>
<image style="overflow:visible;" width="128" height="128" xlink:href="../../../../../Downloads/iconfinder_code-programming-javascript-software-develop-command-language_652581.png"  transform="matrix(1.2523 0 0 1.3429 47.4598 1182.3303)">
</image>
<rect x="243.6" y="1796.8" class="st0" width="1925" height="132.1"/>
<g>
	<g>
		<defs>
			<rect id="SVGID_3_" x="46.5" y="1394.7" width="162.2" height="143.5"/>
		</defs>
		<clipPath id="SVGID_4_">
			<use xlink:href="#SVGID_3_"  style="overflow:visible;"/>
		</clipPath>
		<path class="st7" d="M99.9,1456.1l25.6-17.1v34.2L99.9,1456.1z M88.3,1448.3l-22.4-14.9l-9.2,2.7l22.8,20l-22.8,20l9.2,2.7
			l22.4-14.9h0l37.3,32.6l22.3-8.4v-63.9l-22.3-8.4L88.3,1448.3z M168.1,1394.7V1518l-121.6-16l121.6,36.2l40.6-14.9v-111.4l0,0l0,0
			v-2.2L168.1,1394.7z"/>
	</g>
</g>
<rect x="234.6" y="596.8" class="st1" width="1618.9" height="137.5"/>
<rect x="231.1" y="805.8" class="st1" width="1804.6" height="132.1"/>
<rect x="231.1" y="1207.6" class="st1" width="1390.3" height="132.1"/>
<rect x="243.6" y="1604" class="st1" width="1749.3" height="132.1"/>
<rect x="243.6" y="1009.3" class="st1" width="1685" height="126.8"/>
<rect x="243.6" y="1400.4" class="st1" width="1824.3" height="126.8"/>
<rect x="245.4" y="1799.5" class="st1" width="1376.1" height="126.8"/>
<rect x="243.6" y="409.3" class="st0" width="1925" height="132.1"/>
<rect x="243.6" y="409.3" class="st1" width="1610" height="132.1"/>
<image style="overflow:visible;" width="512" height="512" xlink:href="../../../../../Downloads/iconfinder_Premiere_Pro_289514.png"  transform="matrix(0.3004 0 0 0.3181 53.9688 580.8524)">
</image>
</svg>
